<svg width="30" height="30" viewBox="0 0 30 30" fill="none" xmlns="http://www.w3.org/2000/svg">
<g clip-path="url(#clip0)">
<path d="M5.23855 25.8046C5.43293 25.9434 5.68486 25.9727 5.90585 25.8823L13.5624 22.7483C13.6754 22.7021 13.7742 22.6269 13.8488 22.5306L25.0461 8.07257C25.7625 7.14736 26.0791 5.97348 25.9243 4.81317C25.7698 3.65313 25.1571 2.60304 24.2229 1.89774L22.935 0.924747C21.0184 -0.512745 18.3033 -0.149503 16.8319 1.74136L5.57871 16.3025C5.49319 16.4136 5.44297 16.5479 5.43483 16.6877L4.94833 25.1992C4.93476 25.4376 5.04444 25.6662 5.23855 25.8046V25.8046ZM6.74581 18.1073L11.86 21.9428L6.39886 24.1779L6.74581 18.1073ZM13.1446 21.1688L7.08597 16.625L16.2243 4.80041L22.2683 9.38871L13.1446 21.1688ZM17.9316 2.5911C18.9361 1.30075 20.789 1.05261 22.0972 2.03375L23.3852 3.00674C24.0229 3.48807 24.4409 4.20478 24.5465 4.99669C24.6522 5.7886 24.4361 6.58974 23.9468 7.22148L23.1194 8.28976L17.0743 3.70064L17.9316 2.5911Z" fill="white"/>
<path d="M29.305 28.6128H0.694991C0.311117 28.6128 0 28.9239 0 29.3078C0 29.6917 0.311117 30.0028 0.694991 30.0028H29.305C29.6889 30.0028 30 29.6917 30 29.3078C30 28.9239 29.6889 28.6128 29.305 28.6128Z" fill="white"/>
</g>
<defs>
<clipPath id="clip0">
<rect width="30" height="30" fill="white"/>
</clipPath>
</defs>
</svg>
