<svg width="41" height="41" viewBox="0 0 41 41" fill="none" xmlns="http://www.w3.org/2000/svg">
<g clip-path="url(#clip0)">
<path d="M13.2666 33.8012C13.815 34.3619 14.7219 34.3564 15.2825 33.789C15.8241 33.2408 15.8187 32.3339 15.2705 31.7935L4.98745 21.6336L38.7169 21.4305C39.5032 21.4245 40.1244 20.7958 40.1196 20.0096C40.1149 19.2233 39.4861 18.5818 38.6998 18.5865L4.97033 18.7895L15.1304 8.5256C15.6719 7.95834 15.6665 7.05014 15.1183 6.50976C14.5509 5.94918 13.6427 5.95464 13.1024 6.5219L0.537268 19.2392C-0.0234294 19.7876 -0.0179699 20.6945 0.54928 21.2348L13.2666 33.8012Z" fill="black"/>
</g>
<defs>
<clipPath id="clip0">
<rect width="40" height="40" fill="white" transform="translate(40.24 39.999) rotate(179.655)"/>
</clipPath>
</defs>
</svg>
