<?xml version="1.0" encoding="iso-8859-1"?>
<!-- Generator: Adobe Illustrator 16.0.0, SVG Export Plug-In . SVG Version: 6.00 Build 0)  -->
<!DOCTYPE svg PUBLIC "-//W3C//DTD SVG 1.1//EN" "http://www.w3.org/Graphics/SVG/1.1/DTD/svg11.dtd">
<svg version="1.1" id="Capa_1" xmlns="http://www.w3.org/2000/svg" xmlns:xlink="http://www.w3.org/1999/xlink" x="0px" y="0px"
	 width="65.001px" height="65.001px" viewBox="0 0 65.001 65.001" style="enable-background:new 0 0 65.001 65.001;"
	 xml:space="preserve">
<g>
	<g>
		<g>
			<path d="M65,50.068c0,3.828-3.104,6.933-6.932,6.933H6.932C3.104,57.001,0,53.896,0,50.068V14.932C0,11.104,3.104,8,6.932,8
				h51.136c3.828,0,6.933,3.104,6.933,6.932L65,50.068L65,50.068z M61,14.932C61,13.313,59.688,12,58.068,12H6.932
				C5.313,12,4,13.313,4,14.932v35.136c0,1.619,1.313,2.933,2.932,2.933h51.136c1.619,0,2.933-1.313,2.933-2.933L61,14.932
				L61,14.932z"/>
		</g>
		<g>
			<path d="M63.619,20h-61c-0.553,0-1-0.447-1-1s0.447-1,1-1h61c0.552,0,1,0.447,1,1S64.171,20,63.619,20z"/>
		</g>
		<g>
			<path d="M63.619,31h-61c-0.553,0-1-0.447-1-1s0.447-1,1-1h61c0.552,0,1,0.447,1,1S64.171,31,63.619,31z"/>
		</g>
		<g>
			<path d="M10.619,46h-4c-0.553,0-1-0.447-1-1s0.447-1,1-1h4c0.552,0,1,0.447,1,1S11.171,46,10.619,46z"/>
		</g>
		<g>
			<path d="M21.619,46h-7c-0.553,0-1-0.447-1-1s0.447-1,1-1h7c0.552,0,1,0.447,1,1S22.171,46,21.619,46z"/>
		</g>
		<g>
			<path d="M27.619,46h-2c-0.553,0-1-0.447-1-1s0.447-1,1-1h2c0.552,0,1,0.447,1,1S28.171,46,27.619,46z"/>
		</g>
	</g>
</g>
<g>
</g>
<g>
</g>
<g>
</g>
<g>
</g>
<g>
</g>
<g>
</g>
<g>
</g>
<g>
</g>
<g>
</g>
<g>
</g>
<g>
</g>
<g>
</g>
<g>
</g>
<g>
</g>
<g>
</g>
</svg>
