<svg width="35" height="35" viewBox="0 0 35 35" fill="none" xmlns="http://www.w3.org/2000/svg">
<path d="M21.5359 14.0098C22.1963 14.0099 22.8419 13.8141 23.3911 13.4472C23.9402 13.0804 24.3682 12.5589 24.6209 11.9488C24.8737 11.3387 24.9398 10.6673 24.811 10.0196C24.6822 9.37185 24.3642 8.77688 23.8972 8.3099C23.4302 7.84293 22.8353 7.52492 22.1875 7.39609C21.5398 7.26727 20.8684 7.33341 20.2583 7.58616C19.6482 7.83891 19.1267 8.26692 18.7599 8.81605C18.393 9.36518 18.1972 10.0108 18.1973 10.6712C18.1983 11.5563 18.5504 12.4049 19.1763 13.0309C19.8022 13.6568 20.6508 14.0088 21.5359 14.0098ZM21.5359 8.28925C22.007 8.2892 22.4676 8.42885 22.8593 8.69055C23.2511 8.95224 23.5564 9.32423 23.7367 9.75946C23.9171 10.1947 23.9643 10.6736 23.8724 11.1357C23.7805 11.5978 23.5537 12.0222 23.2206 12.3553C22.8875 12.6885 22.4631 12.9154 22.001 13.0073C21.5389 13.0992 21.06 13.0521 20.6248 12.8718C20.1895 12.6915 19.8175 12.3862 19.5557 11.9945C19.294 11.6028 19.1543 11.1423 19.1543 10.6712C19.1549 10.0396 19.406 9.43415 19.8525 8.98754C20.299 8.54094 20.9044 8.2897 21.5359 8.28898V8.28925Z" fill="#545050"/>
<path d="M30.7617 30.2832H25.5391V19.5683L26.941 20.3109C27.0531 20.3704 27.1843 20.3828 27.3056 20.3455C27.427 20.3083 27.5285 20.2243 27.5879 20.1121C27.6474 20 27.6598 19.8688 27.6225 19.7475C27.5852 19.6262 27.5013 19.5246 27.3891 19.4652L24.3042 17.8317C26.1816 15.8066 28.4473 12.9013 28.4473 10.6709C28.4473 8.83795 27.7192 7.08008 26.4231 5.78399C25.127 4.4879 23.3692 3.75977 21.5362 3.75977C19.7033 3.75977 17.9454 4.4879 16.6493 5.78399C15.3532 7.08008 14.6251 8.83795 14.6251 10.6709C14.6251 11.9252 15.3431 13.3932 16.3045 14.7984L7.60922 19.4641C7.55385 19.4938 7.50487 19.5341 7.46509 19.5828C7.4253 19.6314 7.39549 19.6874 7.37735 19.7476C7.3592 19.8078 7.35309 19.8709 7.35935 19.9334C7.36562 19.996 7.38413 20.0566 7.41385 20.112C7.44356 20.1674 7.48389 20.2164 7.53253 20.2561C7.58117 20.2959 7.63718 20.3257 7.69734 20.3439C7.7575 20.362 7.82065 20.3681 7.88318 20.3619C7.94571 20.3556 8.00639 20.3371 8.06176 20.3074L9.45137 19.5617V30.2832H4.23828C4.11137 30.2832 3.98966 30.3336 3.89992 30.4234C3.81018 30.5131 3.75977 30.6348 3.75977 30.7617C3.75977 30.8886 3.81018 31.0103 3.89992 31.1001C3.98966 31.1898 4.11137 31.2402 4.23828 31.2402H30.7617C30.8886 31.2402 31.0103 31.1898 31.1001 31.1001C31.1898 31.0103 31.2402 30.8886 31.2402 30.7617C31.2402 30.6348 31.1898 30.5131 31.1001 30.4234C31.0103 30.3336 30.8886 30.2832 30.7617 30.2832ZM21.5362 4.7168C23.1148 4.71861 24.6282 5.34649 25.7444 6.46271C26.8606 7.57893 27.4885 9.09233 27.4903 10.6709C27.4903 12.0053 26.4209 13.9486 24.3972 16.2909C23.4969 17.3248 22.5419 18.3098 21.5362 19.2415C20.5308 18.3097 19.576 17.3247 18.6758 16.2909C16.6523 13.9489 15.5829 12.0053 15.5829 10.6709C15.5847 9.09247 16.2125 7.5792 17.3286 6.463C18.4446 5.34681 19.9578 4.71882 21.5362 4.7168ZM10.4092 19.0479L16.8689 15.5818C18.1773 17.2632 19.633 18.8246 21.2188 20.2475C21.3061 20.3244 21.4186 20.3669 21.535 20.3669C21.6514 20.3669 21.7638 20.3244 21.8512 20.2475C21.939 20.1701 22.6715 19.5196 23.6176 18.5522L24.582 19.0613V30.2832H20.5595V25.3887C20.5595 25.2618 20.5091 25.14 20.4193 25.0503C20.3296 24.9606 20.2079 24.9102 20.081 24.9102H14.9089C14.782 24.9102 14.6603 24.9606 14.5705 25.0503C14.4808 25.14 14.4304 25.2618 14.4304 25.3887V30.2832H10.4092V19.0479ZM19.6025 30.2832H15.3874V25.8672H19.6025V30.2832Z" fill="#545050"/>
</svg>
