<svg width="35" height="35" viewBox="0 0 35 35" fill="none" xmlns="http://www.w3.org/2000/svg">
<path d="M17.4998 0C10.4122 0 4.6665 5.74569 4.6665 12.8333C4.6665 19.7295 16.5443 34.1769 17.0501 34.7882C17.1609 34.9223 17.3259 35 17.4998 35C17.6738 35 17.8388 34.9223 17.9496 34.7882C18.4553 34.1769 30.3332 19.7295 30.3332 12.8333C30.3332 5.74569 24.5875 0 17.4998 0ZM17.4998 33.4897C15.3048 30.7498 5.83317 18.592 5.83317 12.8333C5.84054 6.39304 11.0596 1.17403 17.4998 1.16667C23.9401 1.17403 29.1591 6.39304 29.1665 12.8333C29.1665 18.5908 19.6949 30.7492 17.4998 33.4897Z" fill="#545050"/>
<path d="M25.439 10.6213L17.8557 4.78799C17.6459 4.62656 17.3538 4.62656 17.144 4.78799L9.56071 10.6213C9.30557 10.818 9.25818 11.1843 9.45483 11.4395C9.56523 11.5827 9.73571 11.6666 9.91654 11.6667H11.6665V18.0833C11.6665 18.4055 11.9277 18.6667 12.2499 18.6667H22.7499C23.072 18.6667 23.3332 18.4055 23.3332 18.0833V11.6667H25.0832C25.4054 11.6665 25.6664 11.4052 25.6662 11.083C25.6662 10.9022 25.5822 10.7317 25.439 10.6213ZM18.6665 17.5H16.3332V14H18.6665V17.5ZM22.7499 10.5C22.4277 10.5 22.1665 10.7612 22.1665 11.0833V17.5H19.8332V13.4167C19.8332 13.0945 19.572 12.8333 19.2499 12.8333H15.7499C15.4277 12.8333 15.1665 13.0945 15.1665 13.4167V17.5H12.8332V11.0833C12.8332 10.7612 12.572 10.5 12.2499 10.5H11.6315L17.4999 5.98616L23.3682 10.5H22.7499Z" fill="#545050"/>
</svg>
