<svg width="35" height="35" viewBox="0 0 35 35" fill="none" xmlns="http://www.w3.org/2000/svg">
<g clip-path="url(#clip0)">
<path d="M34.4509 6.69955H0.549114C0.245814 6.69955 0 6.94537 0 7.24877V27.7511C0 28.0545 0.245814 28.3004 0.549114 28.3004H34.4509C34.7542 28.3004 35.0001 28.0545 35.0001 27.7511V7.24877C35 6.94537 34.7541 6.69955 34.4509 6.69955ZM33.9016 27.202H1.09843V7.79798H33.9017V27.202H33.9016Z" fill="#686363"/>
<path d="M8.90171 17.4935C10.7456 17.4935 12.2456 15.9929 12.2456 14.1482C12.2456 12.3036 10.7456 10.8029 8.90171 10.8029C7.05775 10.8029 5.55762 12.3036 5.55762 14.1482C5.55762 15.9929 7.05785 17.4935 8.90171 17.4935ZM8.90171 11.9014C10.1398 11.9014 11.1472 12.9094 11.1472 14.1482C11.1472 15.3872 10.1398 16.3951 8.90171 16.3951C7.66345 16.3951 6.65605 15.3872 6.65605 14.1482C6.65605 12.9094 7.66345 11.9014 8.90171 11.9014Z" fill="#686363"/>
<path d="M4.78984 24.2106C5.09314 24.2106 5.33905 23.9647 5.33905 23.6614V22.1088C5.33905 20.9203 6.30614 19.9533 7.49509 19.9533H10.3313C11.52 19.9533 12.4872 20.9203 12.4872 22.1088V23.6614C12.4872 23.9647 12.7331 24.2106 13.0364 24.2106C13.3398 24.2106 13.5856 23.9647 13.5856 23.6614V22.1088C13.5856 20.3146 12.1258 18.8549 10.3314 18.8549H7.49509C5.70054 18.8549 4.24072 20.3146 4.24072 22.1088V23.6614C4.24062 23.9648 4.48654 24.2106 4.78984 24.2106Z" fill="#686363"/>
<path d="M15.163 11.9014H30.2106C30.5139 11.9014 30.76 11.6554 30.76 11.3521C30.76 11.0488 30.5139 10.8029 30.2106 10.8029H15.163C14.8597 10.8029 14.6138 11.0488 14.6138 11.3521C14.6138 11.6555 14.8597 11.9014 15.163 11.9014Z" fill="#686363"/>
<path d="M30.2103 23.1123H19.3138C19.0105 23.1123 18.7646 23.3582 18.7646 23.6615C18.7646 23.9648 19.0105 24.2107 19.3138 24.2107H30.2104C30.5138 24.2107 30.7597 23.9648 30.7597 23.6615C30.7596 23.3582 30.5137 23.1123 30.2103 23.1123Z" fill="#686363"/>
<path d="M30.2102 17.1103H23.4364C23.1331 17.1103 22.8872 17.3561 22.8872 17.6594C22.8872 17.9627 23.1331 18.2087 23.4364 18.2087H30.2102C30.5136 18.2087 30.7595 17.9627 30.7595 17.6594C30.7595 17.3561 30.5136 17.1103 30.2102 17.1103Z" fill="#686363"/>
<path d="M30.2102 20.1108H23.4364C23.1331 20.1108 22.8872 20.3568 22.8872 20.6601C22.8872 20.9633 23.1331 21.2093 23.4364 21.2093H30.2102C30.5136 21.2093 30.7595 20.9633 30.7595 20.6601C30.7595 20.3568 30.5136 20.1108 30.2102 20.1108Z" fill="#686363"/>
</g>
<defs>
<clipPath id="clip0">
<rect width="35" height="35" fill="white"/>
</clipPath>
</defs>
</svg>
