<svg width="34" height="33" viewBox="0 0 34 33" fill="none" xmlns="http://www.w3.org/2000/svg">
<g clip-path="url(#clip0)">
<path d="M24.1403 19.5508C23.7805 19.5508 23.4889 19.8938 23.4889 20.317V27.1198C23.4876 28.3888 22.6135 29.4171 21.5347 29.4183H3.25701C2.17812 29.4171 1.30407 28.3888 1.3028 27.1198V7.15398C1.30407 5.8853 2.17812 4.85694 3.25701 4.85545H9.04074C9.40053 4.85545 9.69214 4.51246 9.69214 4.08927C9.69214 3.66637 9.40053 3.32309 9.04074 3.32309H3.25701C1.45904 3.32548 0.00203563 5.03921 0 7.15398V27.1201C0.00203563 29.2349 1.45904 30.9486 3.25701 30.951H21.5347C23.3326 30.9486 24.7896 29.2349 24.7917 27.1201V20.317C24.7917 19.8938 24.5001 19.5508 24.1403 19.5508Z" fill="#71F6A6"/>
<mask id="path-2-inside-1" fill="white">
<path d="M31.8919 1.20837C30.4038 -0.236002 27.9911 -0.236002 26.503 1.20837L11.396 15.8711C11.2924 15.9715 11.2177 16.0961 11.1786 16.2329L9.19203 23.1941C9.11033 23.4795 9.19336 23.7851 9.40902 23.9947C9.62501 24.2041 9.93991 24.2846 10.234 24.2057L17.4061 22.2772C17.547 22.2393 17.6753 22.1667 17.7789 22.0662L32.8856 7.40322C34.3714 5.95789 34.3714 3.61812 32.8856 2.17279L31.8919 1.20837ZM13.241 16.4053L25.6049 4.40468L29.5924 8.27486L17.2281 20.2755L13.241 16.4053ZM12.4445 17.9566L15.6302 21.0488L11.2236 22.2338L12.4445 17.9566ZM31.6882 6.24105L30.7901 7.11268L26.8023 3.24218L27.7007 2.37055C28.5273 1.56826 29.8676 1.56826 30.6942 2.37055L31.6882 3.33496C32.5134 4.13821 32.5134 5.43812 31.6882 6.24105Z"/>
</mask>
<path d="M31.8919 1.20837C30.4038 -0.236002 27.9911 -0.236002 26.503 1.20837L11.396 15.8711C11.2924 15.9715 11.2177 16.0961 11.1786 16.2329L9.19203 23.1941C9.11033 23.4795 9.19336 23.7851 9.40902 23.9947C9.62501 24.2041 9.93991 24.2846 10.234 24.2057L17.4061 22.2772C17.547 22.2393 17.6753 22.1667 17.7789 22.0662L32.8856 7.40322C34.3714 5.95789 34.3714 3.61812 32.8856 2.17279L31.8919 1.20837ZM13.241 16.4053L25.6049 4.40468L29.5924 8.27486L17.2281 20.2755L13.241 16.4053ZM12.4445 17.9566L15.6302 21.0488L11.2236 22.2338L12.4445 17.9566ZM31.6882 6.24105L30.7901 7.11268L26.8023 3.24218L27.7007 2.37055C28.5273 1.56826 29.8676 1.56826 30.6942 2.37055L31.6882 3.33496C32.5134 4.13821 32.5134 5.43812 31.6882 6.24105Z" fill="#71F6A6"/>
<path d="M26.503 1.20837L29.9854 4.79628L26.503 1.20837ZM11.396 15.8711L7.91359 12.2832L11.396 15.8711ZM11.1786 16.2329L6.37062 14.8607L6.37061 14.8607L11.1786 16.2329ZM9.19203 23.1941L13.999 24.5701L14.0001 24.5662L9.19203 23.1941ZM9.40902 23.9947L5.92389 27.58L5.92939 27.5853L9.40902 23.9947ZM10.234 24.2057L11.5309 29.0345L11.5323 29.0342L10.234 24.2057ZM17.4061 22.2772L16.1079 17.4486L16.1078 17.4487L17.4061 22.2772ZM17.7789 22.0662L21.2612 25.6541L21.2613 25.6541L17.7789 22.0662ZM32.8856 7.40322L36.368 10.9911L36.3719 10.9873L32.8856 7.40322ZM32.8856 2.17279L36.3719 -1.41125L36.3679 -1.41512L32.8856 2.17279ZM13.241 16.4053L9.75859 12.8174L6.06221 16.4052L9.75849 19.993L13.241 16.4053ZM25.6049 4.40468L29.0873 0.816776L25.6049 -2.56322L22.1225 0.816822L25.6049 4.40468ZM29.5924 8.27486L33.0748 11.8628L36.7714 8.27486L33.0748 4.68695L29.5924 8.27486ZM17.2281 20.2755L13.7456 23.8632L17.228 27.2435L20.7105 23.8634L17.2281 20.2755ZM12.4445 17.9566L15.9271 14.3688L9.93038 8.5479L7.63654 16.5842L12.4445 17.9566ZM15.6302 21.0488L16.9286 25.8773L25.4284 23.5916L19.1127 17.4611L15.6302 21.0488ZM11.2236 22.2338L6.41566 20.8615L3.9909 29.3564L12.5221 27.0623L11.2236 22.2338ZM30.7901 7.11268L27.3077 10.7006L30.7901 14.0805L34.2725 10.7006L30.7901 7.11268ZM26.8023 3.24218L23.3206 -0.346363L19.6226 3.24152L23.32 6.83008L26.8023 3.24218ZM27.7007 2.37055L31.1824 5.95909L31.1831 5.95845L27.7007 2.37055ZM30.6942 2.37055L27.2118 5.95845L27.2124 5.95903L30.6942 2.37055ZM31.6882 3.33496L35.1756 -0.248065L35.1699 -0.253518L31.6882 3.33496ZM35.3743 -2.37953C31.9463 -5.7067 26.4486 -5.7067 23.0206 -2.37953L29.9854 4.79628C29.7441 5.03044 29.4477 5.12509 29.1974 5.12509C28.9472 5.12509 28.6508 5.03044 28.4095 4.79628L35.3743 -2.37953ZM23.0206 -2.37953L7.91359 12.2832L14.8783 19.459L29.9854 4.79628L23.0206 -2.37953ZM7.91359 12.2832C7.18988 12.9856 6.65299 13.8713 6.37062 14.8607L15.9867 17.605C15.7824 18.3209 15.395 18.9575 14.8783 19.459L7.91359 12.2832ZM6.37061 14.8607L4.38399 21.8219L14.0001 24.5662L15.9867 17.605L6.37061 14.8607ZM4.38511 21.818C3.787 23.9074 4.41214 26.1104 5.9239 27.58L12.8941 20.4095C13.9746 21.4598 14.4337 23.0515 13.999 24.5701L4.38511 21.818ZM5.92939 27.5853C7.42684 29.0365 9.56205 29.5633 11.5309 29.0345L8.93704 19.3768C10.3178 19.006 11.8232 19.3716 12.8886 20.4042L5.92939 27.5853ZM11.5323 29.0342L18.7044 27.1057L16.1078 17.4487L8.93563 19.3772L11.5323 29.0342ZM18.7042 27.1057C19.6553 26.85 20.5385 26.3556 21.2612 25.6541L14.2965 18.4783C14.8122 17.9778 15.4387 17.6285 16.1079 17.4486L18.7042 27.1057ZM21.2613 25.6541L36.368 10.9911L29.4031 3.8154L14.2964 18.4784L21.2613 25.6541ZM36.3719 10.9873C39.8759 7.57873 39.8759 1.99728 36.3719 -1.41124L29.3992 5.75682C28.8668 5.23897 28.8668 4.33704 29.3992 3.81919L36.3719 10.9873ZM36.3679 -1.41512L35.3743 -2.37953L28.4095 4.79628L29.4032 5.76069L36.3679 -1.41512ZM16.7234 19.9931L29.0874 7.99254L22.1225 0.816822L9.75859 12.8174L16.7234 19.9931ZM22.1226 7.99258L26.11 11.8628L33.0748 4.68695L29.0873 0.816776L22.1226 7.99258ZM26.11 4.68695L13.7458 16.6876L20.7105 23.8634L33.0748 11.8628L26.11 4.68695ZM20.7107 16.6877L16.7235 12.8175L9.75849 19.993L13.7456 23.8632L20.7107 16.6877ZM8.96195 21.5443L12.1476 24.6366L19.1127 17.4611L15.9271 14.3688L8.96195 21.5443ZM14.3317 16.2204L9.9252 17.4054L12.5221 27.0623L16.9286 25.8773L14.3317 16.2204ZM16.0316 23.6062L17.2525 19.3289L7.63654 16.5842L6.41566 20.8615L16.0316 23.6062ZM28.2058 2.65315L27.3077 3.52478L34.2725 10.7006L35.1705 9.82895L28.2058 2.65315ZM34.2725 3.52478L30.2847 -0.345722L23.32 6.83008L27.3077 10.7006L34.2725 3.52478ZM30.284 6.83073L31.1824 5.95909L24.219 -1.218L23.3206 -0.346363L30.284 6.83073ZM31.1831 5.95845C30.0698 7.03896 28.3251 7.03896 27.2118 5.95845L34.1766 -1.21735C31.4101 -3.90244 26.9848 -3.90244 24.2183 -1.21735L31.1831 5.95845ZM27.2124 5.95903L28.2064 6.92344L35.1699 -0.253518L34.176 -1.21793L27.2124 5.95903ZM28.2008 6.91799C27.0096 5.75865 27.0086 3.81791 28.2015 2.65733L35.1748 9.82477C38.0183 7.05832 38.0172 2.51777 35.1756 -0.248061L28.2008 6.91799Z" fill="#71F6A6" mask="url(#path-2-inside-1)"/>
</g>
<defs>
<clipPath id="clip0">
<rect width="34" height="33" fill="white"/>
</clipPath>
</defs>
</svg>
