<svg width="35" height="35" viewBox="0 0 35 35" fill="none" xmlns="http://www.w3.org/2000/svg">
<g clip-path="url(#clip0)">
<path d="M34.993 13.3808C34.9893 13.3406 34.9813 13.3008 34.969 13.2624C34.961 13.228 34.9499 13.1944 34.9358 13.162C34.9195 13.1303 34.8999 13.1004 34.8775 13.0727C34.855 13.0398 34.829 13.0096 34.7999 12.9823C34.7905 12.9741 34.7865 12.963 34.7766 12.9549L29.1664 8.59775V4.08198C29.1664 3.11546 28.3828 2.33189 27.4163 2.33189H21.0944L18.5631 0.366523C17.9378 -0.121177 17.0609 -0.121177 16.4356 0.366523L13.9038 2.33189H7.58185C6.61534 2.33189 5.83176 3.11539 5.83176 4.08198V8.59782L0.223341 12.9549C0.213429 12.9631 0.209327 12.9742 0.20003 12.9823C0.170975 13.0096 0.144929 13.0399 0.122438 13.0728C0.100015 13.1005 0.0804631 13.1303 0.0641244 13.1621C0.0499732 13.1944 0.0388985 13.228 0.0309 13.2624C0.0187314 13.3004 0.010733 13.3395 0.00697301 13.3791C0.00697301 13.3914 0 13.4019 0 13.4141V33.2501C0.000820354 33.6212 0.120866 33.9821 0.34243 34.2797C0.345916 34.285 0.346531 34.2914 0.350565 34.296C0.354666 34.3007 0.363417 34.306 0.369228 34.3124C0.696959 34.7436 1.20667 34.9979 1.74831 35.0002H33.2499C33.7937 34.9985 34.3055 34.7431 34.6336 34.3095C34.6383 34.3037 34.6453 34.3019 34.6494 34.2961C34.6535 34.2903 34.654 34.285 34.6576 34.2798C34.8791 33.9821 34.9992 33.6212 35 33.2502V13.4158C34.9999 13.4035 34.9936 13.393 34.993 13.3808ZM17.149 1.28703C17.3527 1.12515 17.6412 1.12515 17.845 1.28703L19.1908 2.33182H15.8073L17.149 1.28703ZM1.89529 33.8335L17.1491 21.9848C17.353 21.8232 17.6412 21.8232 17.845 21.9848L33.1029 33.8335H1.89529ZM33.8333 32.924L18.5631 21.0642C17.9377 20.5769 17.061 20.5769 16.4356 21.0642L1.1649 32.924V14.3042L10.7245 21.7275C10.9792 21.925 11.3458 21.8787 11.5433 21.624C11.7408 21.3692 11.6944 21.0027 11.4397 20.8052L1.72787 13.2641L5.83183 10.0748V14.5824C5.83183 14.9046 6.09304 15.1658 6.41517 15.1658C6.73736 15.1658 6.99851 14.9046 6.99851 14.5824V4.08191C6.99851 3.75971 7.25966 3.49857 7.58185 3.49857H27.4162C27.7384 3.49857 27.9995 3.75971 27.9995 4.08191V14.5824C27.9995 14.9046 28.2607 15.1658 28.5828 15.1658C28.905 15.1658 29.1662 14.9046 29.1662 14.5824V10.0748L33.2701 13.2641L23.5414 20.8186C23.3741 20.9455 23.2877 21.1525 23.3155 21.3606C23.3432 21.5688 23.4807 21.746 23.6755 21.8245C23.8703 21.9031 24.0922 21.871 24.2566 21.7403L33.8331 14.3042V32.924H33.8333Z" fill="#686363"/>
<path d="M24.4992 13.9987V11.6652C24.4992 7.79903 21.3651 4.66487 17.4989 4.66487C13.6327 4.66487 10.4985 7.79903 10.4985 11.6652C10.4985 15.5314 13.6327 18.6656 17.4989 18.6656C17.8211 18.6656 18.0822 18.4044 18.0822 18.0822C18.0822 17.76 17.8211 17.4989 17.4989 17.4989C14.2771 17.4989 11.6653 14.8871 11.6653 11.6653C11.6653 8.44349 14.2771 5.83169 17.4989 5.83169C20.7207 5.83169 23.3325 8.44349 23.3325 11.6653V13.9987C23.3325 14.6431 22.8101 15.1655 22.1657 15.1655C21.5214 15.1655 20.999 14.6431 20.999 13.9987V11.6653C20.999 11.3431 20.7378 11.082 20.4157 11.082C20.0935 11.082 19.8323 11.3431 19.8323 11.6653C19.8323 12.954 18.7876 13.9987 17.4989 13.9987C16.2102 13.9987 15.1655 12.954 15.1655 11.6653C15.1655 10.3766 16.2102 9.33187 17.4989 9.33187C17.8211 9.33187 18.0822 9.07072 18.0822 8.74853C18.0822 8.42633 17.8211 8.16519 17.4989 8.16519C15.9324 8.1617 14.5542 9.19951 14.1249 10.7061C13.6956 12.2127 14.3195 13.821 15.6526 14.6439C16.9857 15.4667 18.7031 15.3036 19.8574 14.2444C19.9844 15.4781 21.0567 16.3954 22.2951 16.3298C23.5337 16.2642 24.5031 15.2389 24.4992 13.9987Z" fill="#686363"/>
</g>
<defs>
<clipPath id="clip0">
<rect width="35" height="35" fill="white"/>
</clipPath>
</defs>
</svg>
