<svg width="35" height="35" viewBox="0 0 35 35" fill="none" xmlns="http://www.w3.org/2000/svg">
<path d="M21.5411 10.1229C21.541 9.3238 21.304 8.54264 20.8599 7.87824C20.4159 7.21385 19.7848 6.69604 19.0464 6.3903C18.3081 6.08456 17.4957 6.00462 16.7119 6.16059C15.9282 6.31656 15.2083 6.70143 14.6432 7.26654C14.0782 7.83165 13.6934 8.55161 13.5376 9.33539C13.3817 10.1192 13.4617 10.9316 13.7676 11.6699C14.0734 12.4081 14.5913 13.0392 15.2558 13.4831C15.9202 13.9271 16.7014 14.1641 17.5005 14.1641C18.5719 14.1628 19.5989 13.7366 20.3564 12.979C21.1139 12.2214 21.54 11.1942 21.5411 10.1229ZM14.417 10.1229C14.4171 9.51308 14.598 8.91696 14.9369 8.40994C15.2758 7.90293 15.7574 7.50779 16.3209 7.27448C16.8844 7.04118 17.5043 6.98019 18.1025 7.09923C18.7006 7.21828 19.25 7.512 19.6811 7.94326C20.1123 8.37453 20.406 8.92396 20.5249 9.5221C20.6438 10.1202 20.5827 10.7402 20.3493 11.3036C20.1159 11.867 19.7207 12.3486 19.2136 12.6874C18.7065 13.0262 18.1104 13.207 17.5005 13.207C16.6829 13.2061 15.8991 12.8808 15.321 12.3026C14.7429 11.7244 14.4178 10.9405 14.417 10.1229Z" fill="#4B4A4A"/>
<path d="M33.7228 33.1048L29.8219 22.8782C29.7873 22.7877 29.7261 22.7098 29.6463 22.6548C29.5664 22.5998 29.4718 22.5704 29.3749 22.5704H21.9921C22.0372 22.4968 22.082 22.4254 22.1271 22.3516C24.9679 17.6485 26.3974 13.5343 26.3769 10.1251C26.3773 7.77083 25.4424 5.5128 23.778 3.84778C22.1135 2.18276 19.8558 1.24714 17.5015 1.24674C15.1472 1.24634 12.8892 2.1812 11.2242 3.84565C9.55917 5.51011 8.62355 7.76782 8.62315 10.1221C8.60264 13.5343 10.0322 17.649 12.8729 22.3516C12.918 22.4263 12.9629 22.4976 13.008 22.5704H5.62518C5.52825 22.5704 5.43362 22.5998 5.35379 22.6548C5.27397 22.7098 5.21271 22.7877 5.17811 22.8782L1.2778 33.1048C1.25 33.1773 1.24027 33.2554 1.24944 33.3324C1.25861 33.4095 1.2864 33.4832 1.33042 33.5471C1.37443 33.611 1.43335 33.6632 1.50207 33.6993C1.5708 33.7353 1.64726 33.7541 1.72487 33.7539H33.2757C33.3533 33.7541 33.4298 33.7353 33.4985 33.6993C33.5672 33.6632 33.6262 33.611 33.6702 33.5471C33.7142 33.4832 33.742 33.4095 33.7511 33.3324C33.7603 33.2554 33.7506 33.1773 33.7228 33.1048ZM9.58045 10.1229C9.58063 9.08288 9.78566 8.05306 10.1838 7.09224C10.582 6.13143 11.1655 5.25846 11.9011 4.52316C12.6366 3.78786 13.5098 3.20464 14.4708 2.8068C15.4317 2.40895 16.4616 2.20428 17.5017 2.20446C18.5417 2.20464 19.5715 2.40967 20.5324 2.80784C21.4932 3.20602 22.3661 3.78954 23.1014 4.52509C23.8367 5.26064 24.42 6.13382 24.8178 7.09477C25.2156 8.05572 25.4203 9.08562 25.4201 10.1257C25.4612 16.9228 19.1065 25.3061 17.5003 27.3164C15.8941 25.3069 9.53916 16.9258 9.58045 10.1229ZM17.1358 28.3828C17.1807 28.4356 17.2366 28.478 17.2995 28.5071C17.3625 28.5362 17.431 28.5513 17.5003 28.5513C17.5696 28.5513 17.6381 28.5362 17.7011 28.5071C17.764 28.478 17.8199 28.4356 17.8648 28.3828C19.1353 26.8351 20.3131 25.2136 21.3921 23.5268H29.0448L29.6573 25.1333L14.7028 30.4519L9.37237 23.526H13.6079C14.6871 25.2131 15.8651 26.8349 17.1358 28.3828ZM14.6861 31.4727H14.6888L23.6103 28.3008L27.0706 32.7969H10.9651L14.6861 31.4727ZM5.95522 23.526H8.16459L13.7542 30.7891L8.10963 32.7966H2.4194L5.95522 23.526ZM28.2795 32.7969L24.5583 27.962L29.9997 26.0269L32.5817 32.7969H28.2795Z" fill="#4B4A4A"/>
</svg>
