<svg width="194" height="175" viewBox="0 0 194 175" fill="none" xmlns="http://www.w3.org/2000/svg">
<path d="M161.667 30.8992V14.5833C161.655 6.53333 154.424 0.0102083 145.5 0H16.1667C7.24267 0.0102083 0.0113167 6.53333 0 14.5833V78.75C0.0250584 86.1984 6.28398 92.4277 14.4983 93.1831L26.6524 121.643C29.8631 129.158 39.2187 132.902 47.5502 130.009L123.449 103.635C118.204 115.992 119.696 129.854 127.476 141.071L129.333 143.751V172.083C129.333 173.695 130.78 175 132.567 175H190.767C192.553 175 194 173.695 194 172.083V75.8078C193.969 65.7213 189.518 56.0569 181.612 48.9234L161.667 30.8992ZM161.667 48.3423L171.48 71.3213C173.403 75.8319 170.911 80.893 165.911 82.6292L160.302 84.5833C161.198 82.7444 161.662 80.7567 161.667 78.75V48.3423ZM6.46667 78.75V14.5833C6.46667 9.75187 10.8106 5.83333 16.1667 5.83333H145.5C150.856 5.83333 155.2 9.75187 155.2 14.5833V33.1217H155.172L155.2 33.188V78.75C155.175 79.259 155.101 79.7635 154.98 80.2608L125.363 53.5412C118.705 47.6744 108.092 47.6292 101.375 53.4348C94.6558 59.2441 94.2525 68.8107 100.466 75.0597L113.092 87.5H16.1667C10.8106 87.5 6.46667 83.5815 6.46667 78.75ZM47.8889 93.3333L24.8967 101.318L21.4952 93.3333H47.8889ZM45.2246 124.564C40.2259 126.303 34.612 124.055 32.6858 119.545L27.2311 106.75L65.8274 93.3333V93.3158H119.019L123.222 97.4488L45.2246 124.564ZM187.533 169.167H135.8V145.833H187.533V169.167ZM187.533 140H134.361L132.959 137.979C125.075 126.614 124.761 112.26 132.14 100.625C132.838 99.524 132.667 98.1415 131.716 97.2067L105.22 71.1317C101.269 67.2306 101.491 61.1997 105.721 57.5458C109.953 53.8913 116.642 53.951 120.79 57.6785L172.314 104.145L176.886 100.021L164.923 89.2296L168.24 88.0629C176.564 85.1659 180.713 76.7339 177.51 69.2205L166.566 43.5859L177.04 53.0542C183.733 59.0902 187.507 67.27 187.533 75.8078V140Z" fill="#333333"/>
<path d="M36.8598 40.8333C41.5028 40.8333 45.2664 37.4383 45.2664 33.25V19.25C45.2664 15.0616 41.5028 11.6666 36.8598 11.6666H21.3398C16.6967 11.6666 12.9331 15.0616 12.9331 19.25V33.25C12.9331 37.4383 16.6967 40.8333 21.3398 40.8333H36.8598ZM19.3998 33.25V29.1666H25.8664V23.3333H19.3998V19.25C19.3998 18.2838 20.2687 17.5 21.3398 17.5H36.8598C37.9308 17.5 38.7998 18.2838 38.7998 19.25V23.3333H32.3331V29.1666H38.7998V33.25C38.7998 34.2161 37.9308 35 36.8598 35H21.3398C20.2687 35 19.3998 34.2161 19.3998 33.25Z" fill="#333333"/>
<path d="M16.167 49.5834H29.1003V55.4167H16.167V49.5834Z" fill="#333333"/>
<path d="M16.167 67.0833H29.1003V72.9166H16.167V67.0833Z" fill="#333333"/>
<path d="M74.3667 67.0833H87.3V72.9166H74.3667V67.0833Z" fill="#333333"/>
<path d="M35.5669 49.5834H48.5002V55.4167H35.5669V49.5834Z" fill="#333333"/>
<path d="M54.9668 49.5834H67.9001V55.4167H54.9668V49.5834Z" fill="#333333"/>
<path d="M74.3667 49.5834H87.3V55.4167H74.3667V49.5834Z" fill="#333333"/>
<path d="M135.8 14.5833H142.266V23.3333H135.8V14.5833Z" fill="#333333"/>
<path d="M122.867 14.5833H129.333V23.3333H122.867V14.5833Z" fill="#333333"/>
<path d="M109.933 14.5833H116.4V23.3333H109.933V14.5833Z" fill="#333333"/>
<path d="M97 14.5833H103.467V23.3333H97V14.5833Z" fill="#333333"/>
<path d="M142.267 151.667H148.733V157.5H142.267V151.667Z" fill="#333333"/>
<rect width="194" height="175" stroke="white"/>
</svg>
