<svg width="35" height="35" viewBox="0 0 35 35" fill="none" xmlns="http://www.w3.org/2000/svg">
<path d="M26.7298 17.1892H29.1712C29.7231 17.1892 30.1722 16.7402 30.1722 16.1883V13.7469C30.1722 13.1949 29.7231 12.7459 29.1712 12.7459H26.7298C26.1779 12.7459 25.7288 13.1949 25.7288 13.7469V16.1883C25.7288 16.7402 26.1779 17.1892 26.7298 17.1892ZM26.7542 13.7713H29.1468V16.1638H26.7542V13.7713ZM26.7298 23.6834H29.1712C29.7231 23.6834 30.1722 23.2343 30.1722 22.6824V20.241C30.1722 19.6891 29.7231 19.24 29.1712 19.24H26.7298C26.1779 19.24 25.7288 19.6891 25.7288 20.241V22.6824C25.7288 23.2343 26.1779 23.6834 26.7298 23.6834ZM26.7542 20.2654H29.1468V22.658H26.7542V20.2654ZM19.7629 17.1892H22.2043C22.7562 17.1892 23.2052 16.7402 23.2052 16.1883V13.7469C23.2052 13.1949 22.7562 12.7459 22.2043 12.7459H19.7629C19.2109 12.7459 18.7619 13.1949 18.7619 13.7469V16.1883C18.7619 16.7402 19.2109 17.1892 19.7629 17.1892ZM19.7873 13.7713H22.1799V16.1638H19.7873V13.7713ZM8.27043 25.4297H5.82904C5.27711 25.4297 4.82806 25.8787 4.82806 26.4307V28.8721C4.82806 29.424 5.27711 29.873 5.82904 29.873H8.27043C8.82236 29.873 9.27142 29.424 9.27142 28.8721V26.4307C9.27142 25.8787 8.82236 25.4297 8.27043 25.4297ZM8.24603 28.8477H5.85345V26.4551H8.24603V28.8477ZM8.27043 12.7459H5.82904C5.27711 12.7459 4.82806 13.1949 4.82806 13.7469V16.1883C4.82806 16.7402 5.27711 17.1892 5.82904 17.1892H8.27043C8.82236 17.1892 9.27142 16.7402 9.27142 16.1883V13.7469C9.27142 13.1949 8.82236 12.7459 8.27043 12.7459ZM8.24603 16.1638H5.85345V13.7713H8.24603V16.1638ZM19.7629 23.5311H22.2043C22.7562 23.5311 23.2052 23.0821 23.2052 22.5302V20.0888C23.2052 19.5368 22.7562 19.0878 22.2043 19.0878H19.7629C19.2109 19.0878 18.7619 19.5368 18.7619 20.0888V22.5302C18.7619 23.0821 19.2109 23.5311 19.7629 23.5311ZM19.7873 20.1132H22.1799V22.5058H19.7873V20.1132ZM30.6814 2.34295H28.4894V1.55907C28.4894 0.699385 27.79 0 26.9303 0H26.6949C25.8352 0 25.1359 0.699385 25.1359 1.55907V2.34295H9.86437V1.55907C9.86437 0.699385 9.16498 0 8.30529 0H8.06986C7.21018 0 6.51079 0.699385 6.51079 1.55907V2.34295H4.31885C2.90347 2.34295 1.75195 3.49446 1.75195 4.90984V32.4365C1.75195 33.8501 2.90189 35 4.31543 35H30.6849C32.0985 35 33.2484 33.8501 33.2484 32.4365V4.90984C33.2483 3.49446 32.0968 2.34295 30.6814 2.34295ZM26.1612 1.55907C26.1612 1.26479 26.4006 1.02539 26.6949 1.02539H26.9304C27.2246 1.02539 27.464 1.26479 27.464 1.55907V2.34295H26.1612V1.55907ZM7.53625 1.55907C7.53625 1.26479 7.77565 1.02539 8.06993 1.02539H8.30536C8.59965 1.02539 8.83904 1.26479 8.83904 1.55907V2.34295H7.53632V1.55907H7.53625ZM32.2229 32.4365C32.2229 33.2847 31.533 33.9746 30.6849 33.9746H4.31536C3.46723 33.9746 2.77728 33.2847 2.77728 32.4365V32.4333C3.20685 32.757 3.7408 32.9492 4.31885 32.9492H25.1058C25.7914 32.9492 26.436 32.6822 26.9209 32.1973L32.2229 26.8952V32.4365ZM26.3977 31.2704C26.4379 31.1045 26.4598 30.9315 26.4598 30.7534V27.331C26.4598 26.6857 26.9848 26.1607 27.6302 26.1607H31.0525C31.2306 26.1607 31.4036 26.1388 31.5695 26.0986L26.3977 31.2704ZM32.2229 9.66971H10.3771C10.0939 9.66971 9.86437 9.89926 9.86437 10.1824C9.86437 10.4655 10.0939 10.6951 10.3771 10.6951H32.2229V23.9649C32.2229 24.6103 31.6979 25.1353 31.0525 25.1353H27.6302C26.4194 25.1353 25.4344 26.1204 25.4344 27.3311V30.7534C25.4344 31.3988 24.9093 31.9239 24.264 31.9239H4.31885C3.46887 31.9239 2.77734 31.2324 2.77734 30.3823V10.6951H8.32628C8.60943 10.6951 8.83898 10.4655 8.83898 10.1824C8.83898 9.89926 8.60943 9.66971 8.32628 9.66971H2.77728V4.90984C2.77728 4.05986 3.4688 3.36834 4.31878 3.36834H6.51079V4.8758C6.51079 5.73549 7.21018 6.43487 8.06986 6.43487C8.35301 6.43487 8.58256 6.20532 8.58256 5.92218C8.58256 5.63903 8.35301 5.40948 8.06986 5.40948C7.77558 5.40948 7.53618 5.17009 7.53618 4.8758V3.36834H25.1359V4.8758C25.1359 5.73549 25.8352 6.43487 26.6949 6.43487C26.9781 6.43487 27.2076 6.20532 27.2076 5.92218C27.2076 5.63903 26.9781 5.40948 26.6949 5.40948C26.4006 5.40948 26.1612 5.17009 26.1612 4.8758V3.36834H30.6814C31.5314 3.36834 32.2229 4.05986 32.2229 4.90984V9.66971ZM8.27043 19.0878H5.82904C5.27711 19.0878 4.82806 19.5368 4.82806 20.0888V22.5302C4.82806 23.0821 5.27711 23.5311 5.82904 23.5311H8.27043C8.82236 23.5311 9.27142 23.0821 9.27142 22.5302V20.0888C9.27142 19.5368 8.82236 19.0878 8.27043 19.0878ZM8.24603 22.5058H5.85345V20.1132H8.24603V22.5058ZM12.796 17.1892H15.2373C15.7893 17.1892 16.2383 16.7402 16.2383 16.1883V13.7469C16.2383 13.1949 15.7893 12.7459 15.2373 12.7459H12.796C12.244 12.7459 11.795 13.1949 11.795 13.7469V16.1883C11.795 16.7402 12.244 17.1892 12.796 17.1892ZM12.8204 13.7713H15.2129V16.1638H12.8204V13.7713ZM19.7867 28.8477C19.7739 28.5758 19.5495 28.3594 19.2745 28.3594C18.9914 28.3594 18.7618 28.5889 18.7618 28.8721C18.7618 29.424 19.2109 29.873 19.7628 29.873H22.2042C22.7561 29.873 23.2052 29.424 23.2052 28.8721V26.4307C23.2052 25.8787 22.7561 25.4297 22.2042 25.4297H19.7628C19.2109 25.4297 18.7618 25.8787 18.7618 26.4307V27.1348C18.7618 27.4179 18.9914 27.6475 19.2745 27.6475C19.5577 27.6475 19.7872 27.4179 19.7872 27.1348V26.4551H22.1798V28.8477H19.7867ZM12.796 23.5311H15.2373C15.7893 23.5311 16.2383 23.0821 16.2383 22.5302V20.0888C16.2383 19.5368 15.7893 19.0878 15.2373 19.0878H12.796C12.244 19.0878 11.795 19.5368 11.795 20.0888V22.5302C11.795 23.0821 12.244 23.5311 12.796 23.5311ZM12.8204 20.1132H15.2129V22.5058H12.8204V20.1132ZM12.796 29.873H15.2373C15.7893 29.873 16.2383 29.424 16.2383 28.8721V26.4307C16.2383 25.8787 15.7893 25.4297 15.2373 25.4297H12.796C12.244 25.4297 11.795 25.8787 11.795 26.4307V28.8721C11.795 29.424 12.244 29.873 12.796 29.873ZM12.8204 26.4551H15.2129V28.8477H12.8204V26.4551Z" fill="#686363"/>
</svg>
