<svg width="35" height="35" viewBox="0 0 35 35" fill="none" xmlns="http://www.w3.org/2000/svg">
<path d="M20.4166 1.75H14.5833C14.2613 1.75 14 2.01134 14 2.33331C14 2.65528 14.2613 2.91662 14.5833 2.91662H20.4166C20.7386 2.91662 20.9999 2.65528 20.9999 2.33331C20.9999 2.01134 20.7386 1.75 20.4166 1.75Z" fill="#545050"/>
<path d="M24.5001 1.75H23.9168C23.5948 1.75 23.3335 2.01134 23.3335 2.33331C23.3335 2.65528 23.5948 2.91662 23.9168 2.91662H24.5001C24.8221 2.91662 25.0834 2.65528 25.0834 2.33331C25.0834 2.01134 24.8221 1.75 24.5001 1.75Z" fill="#545050"/>
<path d="M18.2243 29.75H16.7759C15.8887 29.75 15.1665 30.4721 15.1665 31.3594V31.6412C15.1665 32.5284 15.8887 33.25 16.7753 33.25H18.2237C19.111 33.25 19.8331 32.5284 19.8331 31.6412V31.3594C19.8331 30.4721 19.111 29.75 18.2243 29.75ZM18.6665 31.6412C18.6665 31.885 18.4682 32.0833 18.2244 32.0833H16.7759C16.5315 32.0833 16.3331 31.885 16.3331 31.6412V31.3594C16.3331 31.115 16.5314 30.9166 16.7759 30.9166H18.2237C18.4682 30.9166 18.6665 31.1149 18.6665 31.3594V31.6412Z" fill="#545050"/>
<path d="M25.3087 0H9.69225C8.52966 0 7.5835 0.946162 7.5835 2.10875V32.8913C7.5835 34.0538 8.52966 35 9.69225 35H25.3081C26.4707 35 27.4168 34.0538 27.4168 32.8919V2.10875C27.4169 0.946162 26.4707 0 25.3087 0ZM26.2502 32.8913C26.2502 33.4104 25.8279 33.8333 25.3087 33.8333H9.69225C9.17251 33.8333 8.75019 33.4104 8.75019 32.8918V2.10875C8.75019 1.58956 9.17251 1.16669 9.69225 1.16669H25.3081C25.8278 1.16669 26.2501 1.58963 26.2501 2.10875V32.8913H26.2502Z" fill="#545050"/>
<path d="M26.8334 3.5H8.16681C7.84483 3.5 7.5835 3.76134 7.5835 4.08331V28.5833C7.5835 28.9053 7.84483 29.1666 8.16681 29.1666H26.8335C27.1555 29.1666 27.4168 28.9053 27.4168 28.5833V4.08331C27.4168 3.76134 27.1555 3.5 26.8334 3.5ZM26.2501 28H8.75012V4.66669H26.2501V28Z" fill="#545050"/>
</svg>
