<svg width="28" height="29" viewBox="0 0 28 29" fill="none" xmlns="http://www.w3.org/2000/svg">
<path d="M25.4527 2.7324H17.9271V1.35683C17.9271 0.60866 17.3403 0 16.619 0H11.3808C10.6594 0 10.0727 0.60866 10.0727 1.35683V2.73234H2.54705C2.18311 2.73234 1.88812 3.03786 1.88812 3.41481C1.88812 3.79175 2.18311 4.09727 2.54705 4.09727H3.76833L4.60111 26.5494C4.65208 27.9235 5.73211 29 7.05997 29H20.9399C22.2677 29 23.3478 27.9235 23.3986 26.5493L24.2314 4.09721H25.4527C25.8165 4.09721 26.1116 3.79169 26.1116 3.41475C26.1116 3.03792 25.8166 2.7324 25.4527 2.7324ZM11.3905 1.36487H16.6093V2.73234H11.3905V1.36487V1.36487ZM22.0818 26.497C22.0581 27.1352 21.5565 27.6351 20.9398 27.6351H7.05997C6.44332 27.6351 5.94172 27.1352 5.91799 26.4969L5.08718 4.09727H22.9127L22.0818 26.497Z" fill="white"/>
<path d="M9.98757 10.2846C9.98063 9.91214 9.68712 9.61523 9.32902 9.61523C9.32476 9.61523 9.32038 9.61523 9.31612 9.61535C8.95234 9.6226 8.66299 9.93401 8.66999 10.3108L8.87676 21.4483C8.88365 21.8207 9.17727 22.1176 9.53531 22.1176C9.53957 22.1176 9.54395 22.1176 9.54821 22.1175C9.91205 22.1102 10.2013 21.7989 10.1943 21.422L9.98757 10.2846Z" fill="white"/>
<path d="M13.9999 9.61523C13.636 9.61523 13.3409 9.92075 13.3409 10.2977V21.4352C13.3409 21.8121 13.6359 22.1176 13.9999 22.1176C14.3638 22.1176 14.6588 21.8121 14.6588 21.4352V10.2977C14.6588 9.92081 14.3638 9.61523 13.9999 9.61523Z" fill="white"/>
<path d="M18.6833 9.6154C18.3208 9.60708 18.0188 9.90778 18.0118 10.2846L17.8051 21.4221C17.798 21.7989 18.0874 22.1103 18.4512 22.1175C18.4555 22.1176 18.4598 22.1176 18.4641 22.1176C18.8221 22.1176 19.1157 21.8206 19.1226 21.4483L19.3294 10.3108C19.3364 9.93395 19.0472 9.6226 18.6833 9.6154Z" fill="white"/>
</svg>
