<svg width="73" height="89" viewBox="0 0 73 89" fill="none" xmlns="http://www.w3.org/2000/svg">
<g clip-path="url(#clip0)">
<path d="M12.7822 55.1621L12.7972 52.305L20.3318 52.3444L20.3169 55.2016L12.7822 55.1621Z" fill="#545050"/>
<path d="M12.8645 39.4482L12.8795 36.5911L35.4834 36.7095L35.4685 39.5666L12.8645 39.4482Z" fill="#545050"/>
<path d="M12.9468 23.7339L12.9617 20.8768L28.0311 20.9557L28.0161 23.8128L12.9468 23.7339Z" fill="#545050"/>
<path d="M31.8134 18.1186L31.7686 26.6899L35.5359 26.7097L35.5509 23.8525L58.1549 23.9709L58.1698 21.1138L35.5657 20.9954L35.5807 18.1383L31.8134 18.1185L31.8134 18.1186Z" fill="#545050"/>
<path d="M42.9883 42.4631L43.0033 39.606L58.0726 39.6849L58.0876 36.8277L43.0182 36.7488L43.0332 33.8917L39.2658 33.872L39.2209 42.4434L42.9883 42.4631Z" fill="#545050"/>
<path d="M27.8367 58.0983L27.8517 55.2412L57.9903 55.399L58.0052 52.5419L27.8666 52.3841L27.8816 49.5269L24.1142 49.5072L24.0693 58.0786L27.8367 58.0983Z" fill="#545050"/>
</g>
<path d="M27.2217 70.0195H22.2485V75H21.3477V64.3359H27.9541V65.105H22.2485V69.2505H27.2217V70.0195ZM30.5615 75H29.6826V67.0752H30.5615V75ZM29.5288 64.7827C29.5288 64.6167 29.5825 64.4775 29.6899 64.3652C29.7974 64.248 29.9438 64.1895 30.1294 64.1895C30.3149 64.1895 30.4614 64.248 30.5688 64.3652C30.6812 64.4775 30.7373 64.6167 30.7373 64.7827C30.7373 64.9487 30.6812 65.0879 30.5688 65.2002C30.4614 65.3125 30.3149 65.3687 30.1294 65.3687C29.9438 65.3687 29.7974 65.3125 29.6899 65.2002C29.5825 65.0879 29.5288 64.9487 29.5288 64.7827ZM33.9307 75H33.0518V63.75H33.9307V75ZM37.6807 65.0464V67.0752H39.3213V67.793H37.6807V73.0737C37.6807 73.5132 37.7588 73.8403 37.915 74.0552C38.0762 74.27 38.3423 74.3774 38.7134 74.3774C38.8599 74.3774 39.0967 74.353 39.4238 74.3042L39.4604 75.022C39.231 75.105 38.9185 75.1465 38.5229 75.1465C37.9224 75.1465 37.4854 74.9731 37.2119 74.6265C36.9385 74.2749 36.8018 73.7598 36.8018 73.0811V67.793H35.3442V67.0752H36.8018V65.0464H37.6807ZM44.7998 67.8223C44.6143 67.7881 44.4165 67.771 44.2065 67.771C43.6597 67.771 43.1958 67.9248 42.8149 68.2324C42.439 68.5352 42.1704 68.9771 42.0093 69.5581V75H41.1377V67.0752H41.9946L42.0093 68.335C42.4731 67.3975 43.2178 66.9287 44.2432 66.9287C44.4873 66.9287 44.6802 66.9604 44.8218 67.0239L44.7998 67.8223ZM45.5615 70.9204C45.5615 70.1587 45.708 69.4727 46.001 68.8623C46.2988 68.252 46.7163 67.7783 47.2534 67.4414C47.7954 67.0996 48.4082 66.9287 49.0918 66.9287C50.1465 66.9287 51.001 67.2998 51.6553 68.042C52.3096 68.7793 52.6367 69.7583 52.6367 70.979V71.1621C52.6367 71.9287 52.4878 72.6196 52.1899 73.2349C51.897 73.8452 51.4819 74.3164 50.9448 74.6484C50.4077 74.9805 49.7949 75.1465 49.1064 75.1465C48.0566 75.1465 47.2021 74.7778 46.543 74.0405C45.8887 73.2983 45.5615 72.3169 45.5615 71.0962V70.9204ZM46.4404 71.1621C46.4404 72.1094 46.6846 72.8882 47.1729 73.4985C47.666 74.104 48.3105 74.4067 49.1064 74.4067C49.8975 74.4067 50.5371 74.104 51.0254 73.4985C51.5186 72.8882 51.7651 72.085 51.7651 71.0889V70.9204C51.7651 70.3149 51.6528 69.7607 51.4282 69.2578C51.2036 68.7549 50.8887 68.3667 50.4834 68.0933C50.0781 67.8149 49.6143 67.6758 49.0918 67.6758C48.3105 67.6758 47.6733 67.9834 47.1802 68.5986C46.687 69.209 46.4404 70.0098 46.4404 71.001V71.1621Z" fill="black"/>
<defs>
<clipPath id="clip0">
<rect width="40" height="52.7433" fill="white" transform="translate(9 57.9995) rotate(-89.7)"/>
</clipPath>
</defs>
</svg>
