<svg width="89" height="90" viewBox="0 0 89 90" fill="none" xmlns="http://www.w3.org/2000/svg">
<ellipse cx="44.5" cy="49.5" rx="32.5" ry="29.5" fill="#E0DEDE"/>
<g clip-path="url(#clip0)">
<path d="M45.4997 57.25C49.5268 57.25 52.7914 53.9854 52.7914 49.9583C52.7914 45.9312 49.5268 42.6666 45.4997 42.6666C41.4726 42.6666 38.208 45.9312 38.208 49.9583C38.208 53.9854 41.4726 57.25 45.4997 57.25Z" fill="#6C5E5E"/>
<path d="M60.0833 38.2917H55.4584C54.8738 38.2917 54.3248 38.0638 53.9111 37.6508L51.2451 34.9848C50.5565 34.2962 49.6407 33.9167 48.6666 33.9167H42.3334C41.3593 33.9167 40.4435 34.2962 39.7549 34.9848L37.0889 37.6508C36.6752 38.0638 36.1262 38.2917 35.5416 38.2917H30.9167C29.3081 38.2917 28 39.5997 28 41.2083V60.1666C28 61.7752 29.3081 63.0833 30.9167 63.0833H60.0834C61.6919 63.0833 63.0001 61.7752 63.0001 60.1666V41.2083C63 39.5997 61.6919 38.2917 60.0833 38.2917ZM45.5 58.7083C40.675 58.7083 36.75 54.7833 36.75 49.9583C36.75 45.1333 40.675 41.2083 45.5 41.2083C50.325 41.2083 54.25 45.1333 54.25 49.9583C54.25 54.7833 50.325 58.7083 45.5 58.7083ZM57.1667 45.5833C56.3628 45.5833 55.7084 44.9289 55.7084 44.125C55.7084 43.3211 56.3628 42.6667 57.1667 42.6667C57.9706 42.6667 58.625 43.3211 58.625 44.125C58.625 44.9289 57.9706 45.5833 57.1667 45.5833Z" fill="#6C5E5E"/>
</g>
<defs>
<clipPath id="clip0">
<rect width="35" height="35" fill="white" transform="translate(28 31)"/>
</clipPath>
</defs>
</svg>
