<svg width="40" height="40" viewBox="0 0 40 40" fill="none" xmlns="http://www.w3.org/2000/svg">
<path d="M24.6125 16.0112C25.3673 16.0113 26.1051 15.7876 26.7326 15.3683C27.3602 14.949 27.8494 14.353 28.1382 13.6557C28.4271 12.9585 28.5027 12.1912 28.3554 11.4509C28.2082 10.7107 27.8448 10.0307 27.3111 9.49703C26.7774 8.96334 26.0974 8.5999 25.3572 8.45267C24.6169 8.30544 23.8497 8.38104 23.1524 8.6699C22.4551 8.95875 21.8591 9.4479 21.4398 10.0755C21.0206 10.7031 20.7968 11.4409 20.7969 12.1956C20.798 13.2072 21.2004 14.1771 21.9157 14.8924C22.631 15.6077 23.6009 16.0101 24.6125 16.0112V16.0112ZM24.6125 9.47343C25.1509 9.47337 25.6773 9.63297 26.125 9.93205C26.5727 10.2311 26.9216 10.6563 27.1277 11.1537C27.3338 11.6511 27.3877 12.1984 27.2827 12.7265C27.1777 13.2546 26.9185 13.7397 26.5378 14.1204C26.1571 14.5011 25.6721 14.7604 25.144 14.8655C24.6159 14.9705 24.0686 14.9167 23.5711 14.7106C23.0737 14.5046 22.6485 14.1557 22.3494 13.708C22.0503 13.2604 21.8906 12.734 21.8906 12.1956C21.8913 11.4739 22.1782 10.7819 22.6885 10.2715C23.1988 9.76106 23.8908 9.47394 24.6125 9.47312V9.47343Z" fill="#333333"/>
<path d="M34.8594 34.3125H28.8906V22.0669L30.4928 22.9156C30.621 22.9835 30.7709 22.9978 30.9096 22.9552C31.0482 22.9126 31.1643 22.8166 31.2322 22.6884C31.3001 22.5603 31.3143 22.4104 31.2717 22.2717C31.2291 22.133 31.1332 22.017 31.005 21.9491L27.4794 20.0822C29.625 17.7678 32.2144 14.4475 32.2144 11.8984C32.2144 9.80364 31.3822 7.79464 29.901 6.3134C28.4197 4.83215 26.4107 4 24.3159 4C22.2211 4 20.2121 4.83215 18.7309 6.3134C17.2497 7.79464 16.4175 9.80364 16.4175 11.8984C16.4175 13.3319 17.2381 15.0097 18.3369 16.6156L8.39937 21.9478C8.33609 21.9818 8.28012 22.0279 8.23465 22.0835C8.18919 22.139 8.15511 22.203 8.13438 22.2718C8.11364 22.3406 8.10666 22.4127 8.11381 22.4842C8.12097 22.5557 8.14213 22.625 8.17609 22.6883C8.21005 22.7516 8.25614 22.8075 8.31173 22.853C8.36732 22.8985 8.43133 22.9325 8.50009 22.9533C8.56884 22.974 8.64101 22.981 8.71247 22.9738C8.78393 22.9667 8.85328 22.9455 8.91656 22.9116L10.5047 22.0594V34.3125H4.54688C4.40183 34.3125 4.26273 34.3701 4.16018 34.4727C4.05762 34.5752 4 34.7143 4 34.8594C4 35.0044 4.05762 35.1435 4.16018 35.2461C4.26273 35.3486 4.40183 35.4062 4.54688 35.4062H34.8594C35.0044 35.4062 35.1435 35.3486 35.2461 35.2461C35.3486 35.1435 35.4062 35.0044 35.4062 34.8594C35.4062 34.7143 35.3486 34.5752 35.2461 34.4727C35.1435 34.3701 35.0044 34.3125 34.8594 34.3125V34.3125ZM24.3159 5.09375C26.12 5.09582 27.8496 5.8134 29.1253 7.08908C30.401 8.36476 31.1186 10.0944 31.1206 11.8984C31.1206 13.4234 29.8984 15.6444 27.5856 18.3212C26.5567 19.5029 25.4653 20.6286 24.3159 21.6934C23.1669 20.6285 22.0757 19.5028 21.0469 18.3212C18.7344 15.6447 17.5122 13.4234 17.5122 11.8984C17.5143 10.0945 18.2317 8.36506 19.5072 7.08941C20.7827 5.81376 22.512 5.09607 24.3159 5.09375V5.09375ZM11.5994 21.4722L18.9819 17.5109C20.4772 19.4325 22.1409 21.217 23.9531 22.8431C24.053 22.9311 24.1815 22.9796 24.3145 22.9796C24.4476 22.9796 24.5761 22.9311 24.6759 22.8431C24.7763 22.7547 25.6134 22.0112 26.6947 20.9056L27.7969 21.4875V34.3125H23.1997V28.7187C23.1997 28.5737 23.1421 28.4346 23.0395 28.3321C22.937 28.2295 22.7979 28.1719 22.6528 28.1719H16.7419C16.5968 28.1719 16.4577 28.2295 16.3552 28.3321C16.2526 28.4346 16.195 28.5737 16.195 28.7187V34.3125H11.5994V21.4722ZM22.1059 34.3125H17.2887V29.2656H22.1059V34.3125Z" fill="#333333"/>
</svg>
