<svg width="25" height="25" viewBox="0 0 25 25" fill="none" xmlns="http://www.w3.org/2000/svg">
<path d="M12.5 0C8.86528 0 5.9082 2.95708 5.9082 6.5918C5.9082 10.2265 8.86528 13.1836 12.5 13.1836C16.1347 13.1836 19.0918 10.2265 19.0918 6.5918C19.0918 2.95708 16.1347 0 12.5 0ZM12.5 11.7188C9.673 11.7188 7.37305 9.4188 7.37305 6.5918C7.37305 3.76479 9.673 1.46484 12.5 1.46484C15.327 1.46484 17.627 3.76479 17.627 6.5918C17.627 9.4188 15.327 11.7188 12.5 11.7188Z" fill="#333333"/>
<path d="M14.5426 14.6973H10.4573C7.07832 14.6973 3.7436 16.2574 1.51367 19.6024V25H23.4863V19.6024C21.2596 16.2622 17.9258 14.6973 14.5426 14.6973ZM22.0215 23.5352H22.0215H2.97852V20.0506C4.68901 17.6115 7.46836 16.1621 10.4574 16.1621H14.5427C17.5317 16.1621 20.311 17.6115 22.0215 20.0506V23.5352Z" fill="#333333"/>
</svg>
